<svg xmlns="http://www.w3.org/2000/svg" xmlns:xlink="http://www.w3.org/1999/xlink" width="491.388" height="339.219" viewBox="0 0 491.388 339.219"><defs><style>.a,.b{fill:#536dfe;}.a,.l,.n{opacity:0.1;}.c{fill:#444053;}.d{fill:#3f3d56;}.e{fill:#fff;}.f{fill:#fa5959;}.f,.g,.h{opacity:0.8;}.g{fill:#fed253;}.h{fill:#8ccf4d;}.i{opacity:0.05;}.j{fill:url(#a);}.k{fill:#fbbebe;}.m{fill:#33313f;}</style><linearGradient id="a" y1="0.5" x2="1" y2="0.5" gradientUnits="objectBoundingBox"><stop offset="0" stop-color="gray" stop-opacity="0.251"/><stop offset="0.54" stop-color="gray" stop-opacity="0.122"/><stop offset="1" stop-color="gray" stop-opacity="0.102"/></linearGradient></defs><g transform="translate(0 0.006)"><path class="a" d="M294.853,93.643c-31.5.042-61.815-8.887-90.813-18.806S146.266,53.811,115.354,49.1c-19.88-3.025-42.487-2.747-58.027,8.238C42.369,67.91,38.037,85.4,35.947,101.56c-1.572,12.156-2.3,24.915,3.59,36.035,4.087,7.719,11.082,14.082,16.012,21.439,17.209,25.594,6.86,58.288-9.864,84.476-7.842,12.287-17.027,24.064-22.956,37.055s-8.36,27.722-2.313,40.544c5.992,12.708,19.526,21.932,34.051,28.232,29.5,12.818,63.837,15.565,97.256,16.623,73.975,2.347,148.094-2.44,222.014-7.226,27.355-1.77,54.833-3.552,81.623-8.68,14.874-2.844,30.191-7.066,40.738-16.32,13.387-11.748,16.126-30.928,6.384-44.716-16.336-23.125-59.413-27.486-71.127-52.507-6.46-13.775-.889-29.572,7.315-42.849,17.6-28.489,47.884-54.007,48.394-85.871.35-21.882-15.4-43.228-38.926-52.738-24.658-9.961-58.279-7.4-75.555,11.166C354.817,85.35,322.663,93.613,294.853,93.643Z" transform="translate(-16.91 -47.46)"/><path class="b" d="M995.281,690.267s-5.179-3.417-10.311-.986c0,0,1.58,3.042,8.078,2.756Z" transform="translate(-577.061 -418.336)"/><path class="b" d="M1006.286,693.25s1.576,6-2.377,10.083c0,0-2.377-2.473,0-8.533Z" transform="translate(-587.409 -421.138)"/><path class="b" d="M1009.928,674.426s-.383-5.1-11.908-3.409c0,0-.055,3.291,3.99,4.85S1007.909,676.111,1009.928,674.426Z" transform="translate(-584.612 -408.074)"/><path class="b" d="M1023.36,679.5s4.871,1.563.527,12.371c0,0-3.215-.716-3.792-5.019S1021.228,681.068,1023.36,679.5Z" transform="translate(-597.319 -413.182)"/><path class="b" d="M1028.151,651.883s.661-8.4-11.116-7.538c0,0-.843,7.585,9.038,9.557Z" transform="translate(-595.604 -392.805)"/><path class="b" d="M1043.527,629.918s-1.614-9.519-13.387-6.683c0,0-.042,8.229,11.465,8.95Z" transform="translate(-603.198 -380.32)"/><path class="b" d="M1055.679,606.927s-2.705-9.27-14.369-6.5c0,0,2.777,8.339,13.593,8.208Z" transform="translate(-609.661 -367.13)"/><path class="b" d="M1069.135,583.844s-2.642-9.62-13.905-6.742c0,0,3.759,9.139,13.159,8.368Z" transform="translate(-617.715 -353.621)"/><path class="b" d="M1079.281,559.164S1077.25,547.4,1066.75,550c0,0,3.051,10.7,11.76,10.875Z" transform="translate(-624.381 -338.033)"/><path class="b" d="M1086.3,533.762s-2.44-11.857-13.062-8.427c0,0,4.163,11.208,12.308,10.05Z" transform="translate(-628.137 -323.617)"/><path class="b" d="M1092.4,506.073s-3.872-11.861-12.085-11.541c0,0,3.957,12.527,11.4,13.905Z" transform="translate(-632.233 -306.15)"/><path class="b" d="M1097.117,480.073s-4.214-14.276-10.9-13.176c0,0,2.916,10.913,10.661,15.4Z" transform="translate(-635.647 -290.128)"/><path class="b" d="M1099.354,453.011s-3.952-11.9-10.534-12.371c0,0,2.688,11.706,10.4,15.464Z" transform="translate(-637.152 -274.97)"/><path class="b" d="M1102.98,426.918s-4.926-11.908-9.27-12.178c0,0,2.141,11.727,8.849,14.133Z" transform="translate(-639.981 -259.984)"/><path class="b" d="M1106.862,399.886s-3.03-12.932-7.382-14.006c0,0,.594,10.581,6.944,14.975Z" transform="translate(-643.32 -243.284)"/><path class="b" d="M1111.682,370.683s-3.186-10.311-6.712-11.883c0,0,.7,12.156,5.9,14.4Z" transform="translate(-646.497 -227.615)"/><path class="b" d="M1120.489,341.038l.641-18.178s-6.594,13.7-1.117,21.368Z" transform="translate(-653.942 -206.819)"/><path class="b" d="M1132.687,303.845s4.749-13.273,5.9-14.015c0,0-9.312,8.613-8.4,19.691Z" transform="translate(-661.05 -187.707)"/><path class="b" d="M1041.579,662.133s8.351-1.091,8.1,10.711c0,0-7.547,1.23-10.012-8.533Z" transform="translate(-608.712 -403.118)"/><path class="b" d="M1060.206,639.06s9.649-.029,8.849,12.051c0,0-8.1,1.45-10.774-9.767Z" transform="translate(-619.48 -389.782)"/><path class="b" d="M1074.565,617.335s8.76-4.108,14.365,6.5c0,0-8.09,3.422-15.14-4.783Z" transform="translate(-628.455 -376.758)"/><path class="b" d="M1087.672,592.793s8.971-4.37,14.238,5.988c0,0-9.346,3.219-14.98-4.349Z" transform="translate(-636.058 -362.481)"/><path class="b" d="M1095.676,567.875s8.634-8.246,15.523.093c0,0-8.819,6.788-15.919,1.744Z" transform="translate(-640.89 -346.487)"/><path class="b" d="M1102.652,540.531s8.684-8.427,15.519.388c0,0-9.746,6.923-15.831,1.382Z" transform="translate(-644.975 -330.668)"/><path class="b" d="M1106.93,509.423s6.691-10.534,14.571-8.183c0,0-6.944,11.154-14.5,10.656Z" transform="translate(-647.631 -309.837)"/><path class="b" d="M1111.373,482.675s6.742-13.265,13.121-10.956c0,0-4.863,10.2-13.294,13.193Z" transform="translate(-650.101 -292.797)"/><path class="b" d="M1111.794,455.626s6.931-10.441,13.425-9.165c0,0-5.667,10.589-14.1,12.186Z" transform="translate(-650.055 -278.276)"/><path class="b" d="M1114,426.888s5.372-11.718,9.738-11.8c0,0-2.579,11.634-9.375,13.787Z" transform="translate(-651.722 -260.186)"/><path class="b" d="M1116.5,402.191s5.971-11.866,10.458-11.891c0,0-3.055,10.147-10.26,12.932Z" transform="translate(-653.168 -245.842)"/><path class="b" d="M1118.63,373.75s4.466-9.818,8.166-10.93c0,0-2.233,11.967-7.673,13.534Z" transform="translate(-654.401 -229.941)"/><path class="b" d="M1123.388,344.267l9.982-15.207s-2.558,15-11.44,18.119Z" transform="translate(-656.31 -210.406)"/><path class="b" d="M1135.013,313.23s11.6-8.006,12.021-9.3c0,0-5.9,11.213-16.855,13.193Z" transform="translate(-661.084 -195.865)"/><path class="b" d="M1142.86,299.883s13.319-12.805,16.72-12.793c0,0-10.985.5-17.04,12.11Z" transform="translate(-668.236 -186.121)"/><path class="c" d="M1118.94,347.951l.485.063c2.5-19.589,6.152-31.181,10.273-32.6l-.16-.464C1125.168,316.467,1121.493,327.882,1118.94,347.951Z" transform="translate(-654.58 -202.242)"/><path class="c" d="M1110.2,438.121l.733.059c.156-1.829.274-3.7.354-5.566.7-16.214,1.782-31.105,3.207-42.267l-.421-.527c-1.428,11.187-2.819,26.525-3.518,42.765C1110.474,434.439,1110.356,436.3,1110.2,438.121Z" transform="translate(-649.523 -245.564)"/><path class="c" d="M976.456,591.248c.126-.055,13.033-5.819,26.428-19.564a106.277,106.277,0,0,0,19.32-27.389c6.194-12.612,9.97-28.109,11.234-43.165l-.763.358c-2.844,33.794-18.229,56.885-30.461,69.462-13.265,13.623-26.028,19.328-26.154,19.383Z" transform="translate(-571.905 -309.972)"/><path class="d" d="M495.361,132.69H90.477A3.607,3.607,0,0,0,86.87,136.3v10.509h412.1V136.3A3.607,3.607,0,0,0,495.361,132.69Z" transform="translate(-57.391 -96.78)"/><path class="e" d="M86.87,166.19V402.678a7.273,7.273,0,0,0,7.273,7.273H491.695a7.273,7.273,0,0,0,7.273-7.273V166.19Z" transform="translate(-57.391 -116.164)"/><circle class="f" cx="1.685" cy="1.685" r="1.685" transform="translate(34.32 41.177)"/><circle class="g" cx="1.685" cy="1.685" r="1.685" transform="translate(38.955 41.177)"/><circle class="h" cx="1.685" cy="1.685" r="1.685" transform="translate(43.591 41.177)"/><rect class="i" width="331.195" height="145.633" transform="translate(67.785 89.457)"/><rect class="d" width="326.139" height="142.422" transform="translate(70.314 90.561)"/><path class="b" d="M350.225,349.38a32.445,32.445,0,1,0,32.445,32.445A32.445,32.445,0,0,0,350.225,349.38Zm5.819,33.225v15.363h-11.47V382.6a9.5,9.5,0,1,1,11.47,0Z" transform="translate(-191.003 -222.164)"/><path class="i" d="M350.225,349.38a32.445,32.445,0,1,0,32.445,32.445A32.445,32.445,0,0,0,350.225,349.38Zm5.819,33.225v15.363h-11.47V382.6a9.5,9.5,0,1,1,11.47,0Z" transform="translate(-191.003 -222.164)"/><path class="b" d="M337.5,327.38A41.715,41.715,0,1,0,379.211,369.1,41.715,41.715,0,0,0,337.5,327.38Zm7.479,42.718v19.749H330.227V370.1a12.22,12.22,0,1,1,14.748,0Z" transform="translate(-178.273 -209.434)"/><rect class="e" width="134.838" height="14.327" transform="translate(218.214 154.188)"/><rect class="b" width="29.074" height="14.327" transform="translate(323.977 180.312)"/><path class="b" d="M557.89,425.83h-2.44l2.17-2.166a.215.215,0,0,0,0-.3.211.211,0,0,0-.3,0l-2.17,2.17v-2.444a.211.211,0,0,0-.211-.211.215.215,0,0,0-.211.211v2.444l-2.166-2.183a.211.211,0,0,0-.3,0,.215.215,0,0,0,0,.3l2.17,2.166h-2.444a.215.215,0,0,0-.211.211.211.211,0,0,0,.211.211h2.444l-2.17,2.17a.215.215,0,0,0,0,.3.219.219,0,0,0,.3,0l2.166-2.17v2.44a.211.211,0,0,0,.421,0v-2.44l2.17,2.17a.219.219,0,0,0,.3,0,.215.215,0,0,0,0-.3l-2.17-2.17h2.44a.2.2,0,1,0,0-.409Z" transform="translate(-326.403 -264.694)"/><path class="b" d="M578.89,425.83h-2.44l2.17-2.166a.215.215,0,0,0,0-.3.211.211,0,0,0-.3,0l-2.17,2.17v-2.444a.211.211,0,0,0-.211-.211.215.215,0,0,0-.211.211v2.444l-2.166-2.183a.211.211,0,0,0-.3,0,.215.215,0,0,0,0,.3l2.17,2.166h-2.444a.215.215,0,0,0-.211.211.211.211,0,0,0,.211.211h2.444l-2.17,2.17a.215.215,0,0,0,0,.3.219.219,0,0,0,.3,0l2.166-2.17v2.44a.211.211,0,0,0,.421,0v-2.44l2.17,2.17a.219.219,0,0,0,.3,0,.215.215,0,0,0,0-.3l-2.17-2.17h2.44a.2.2,0,1,0,0-.409Z" transform="translate(-338.554 -264.694)"/><path class="b" d="M599.89,425.83h-2.44l2.17-2.166a.215.215,0,0,0,0-.3.211.211,0,0,0-.3,0l-2.17,2.17v-2.444a.211.211,0,0,0-.211-.211.215.215,0,0,0-.211.211v2.444l-2.166-2.183a.211.211,0,0,0-.3,0,.215.215,0,0,0,0,.3l2.17,2.166h-2.444a.215.215,0,0,0-.211.211.211.211,0,0,0,.211.211h2.444l-2.17,2.17a.215.215,0,0,0,0,.3.219.219,0,0,0,.3,0l2.166-2.17v2.44a.211.211,0,0,0,.421,0v-2.44l2.17,2.17a.219.219,0,0,0,.3,0,.215.215,0,0,0,0-.3l-2.17-2.17h2.44a.2.2,0,1,0,0-.409Z" transform="translate(-350.706 -264.694)"/><path class="b" d="M620.89,425.83h-2.44l2.17-2.166a.215.215,0,0,0,0-.3.211.211,0,0,0-.3,0l-2.17,2.17v-2.444a.211.211,0,0,0-.211-.211.215.215,0,0,0-.211.211v2.444l-2.166-2.183a.211.211,0,0,0-.3,0,.215.215,0,0,0,0,.3l2.17,2.166h-2.444a.215.215,0,0,0-.211.211.211.211,0,0,0,.211.211h2.444l-2.17,2.17a.215.215,0,0,0,0,.3.219.219,0,0,0,.3,0l2.166-2.17v2.44a.211.211,0,0,0,.421,0v-2.44l2.17,2.17a.219.219,0,0,0,.3,0,.215.215,0,0,0,0-.3l-2.17-2.17h2.44a.2.2,0,1,0,0-.409Z" transform="translate(-362.857 -264.694)"/><path class="b" d="M641.89,425.83h-2.44l2.17-2.166a.215.215,0,0,0,0-.3.211.211,0,0,0-.3,0l-2.17,2.17v-2.444a.211.211,0,0,0-.211-.211.215.215,0,0,0-.211.211v2.444l-2.166-2.183a.211.211,0,0,0-.3,0,.215.215,0,0,0,0,.3l2.17,2.166h-2.444a.215.215,0,0,0-.211.211.211.211,0,0,0,.211.211h2.444l-2.17,2.17a.215.215,0,0,0,0,.3.219.219,0,0,0,.3,0l2.166-2.17v2.44a.211.211,0,0,0,.421,0v-2.44l2.17,2.17a.219.219,0,0,0,.3,0,.215.215,0,0,0,0-.3l-2.17-2.17h2.44a.2.2,0,1,0,0-.409Z" transform="translate(-375.008 -264.694)"/><path class="b" d="M662.89,425.83h-2.44l2.17-2.166a.215.215,0,0,0,0-.3.211.211,0,0,0-.3,0l-2.17,2.17v-2.444a.211.211,0,0,0-.211-.211.215.215,0,0,0-.211.211v2.444l-2.166-2.183a.211.211,0,0,0-.3,0,.215.215,0,0,0,0,.3l2.17,2.166h-2.444a.215.215,0,0,0-.211.211.211.211,0,0,0,.211.211h2.444l-2.17,2.17a.215.215,0,0,0,0,.3.219.219,0,0,0,.3,0l2.166-2.17v2.44a.211.211,0,0,0,.421,0v-2.44l2.17,2.17a.219.219,0,0,0,.3,0,.215.215,0,0,0,0-.3l-2.17-2.17h2.44a.2.2,0,1,0,0-.409Z" transform="translate(-387.159 -264.694)"/><path class="b" d="M683.89,425.83h-2.44l2.17-2.166a.215.215,0,0,0,0-.3.211.211,0,0,0-.3,0l-2.17,2.17v-2.444a.211.211,0,0,0-.211-.211.215.215,0,0,0-.211.211v2.444l-2.166-2.183a.211.211,0,0,0-.3,0,.215.215,0,0,0,0,.3l2.17,2.166h-2.444a.215.215,0,0,0-.211.211.211.211,0,0,0,.211.211h2.444l-2.17,2.17a.215.215,0,0,0,0,.3.219.219,0,0,0,.3,0l2.166-2.17v2.44a.211.211,0,1,0,.421,0v-2.44l2.17,2.17a.219.219,0,0,0,.3,0,.215.215,0,0,0,0-.3l-2.17-2.17h2.44a.2.2,0,1,0,0-.409Z" transform="translate(-399.311 -264.694)"/><path class="b" d="M704.89,425.83h-2.44l2.17-2.166a.215.215,0,0,0,0-.3.211.211,0,0,0-.3,0l-2.17,2.17v-2.444a.211.211,0,0,0-.211-.211.215.215,0,0,0-.211.211v2.444l-2.166-2.183a.211.211,0,0,0-.3,0,.215.215,0,0,0,0,.3l2.17,2.166h-2.444a.215.215,0,0,0-.211.211.211.211,0,0,0,.211.211h2.444l-2.17,2.17a.215.215,0,0,0,0,.3.219.219,0,0,0,.3,0l2.166-2.17v2.44a.211.211,0,1,0,.421,0v-2.44l2.17,2.17a.219.219,0,0,0,.3,0,.215.215,0,0,0,0-.3l-2.17-2.17h2.44a.2.2,0,1,0,0-.409Z" transform="translate(-411.462 -264.694)"/><path class="b" d="M725.89,425.83h-2.44l2.17-2.166a.215.215,0,0,0,0-.3.211.211,0,0,0-.3,0l-2.17,2.17v-2.444a.211.211,0,0,0-.211-.211.215.215,0,0,0-.211.211v2.444l-2.166-2.183a.211.211,0,0,0-.3,0,.215.215,0,0,0,0,.3l2.17,2.166h-2.444a.215.215,0,0,0-.211.211.211.211,0,0,0,.211.211h2.444l-2.17,2.17a.215.215,0,0,0,0,.3.219.219,0,0,0,.3,0l2.166-2.17v2.44a.211.211,0,0,0,.421,0v-2.44l2.17,2.17a.219.219,0,0,0,.3,0,.215.215,0,0,0,0-.3l-2.17-2.17h2.44a.2.2,0,1,0,0-.409Z" transform="translate(-423.613 -264.694)"/><path class="b" d="M746.89,425.83h-2.44l2.17-2.166a.215.215,0,0,0,0-.3.211.211,0,0,0-.3,0l-2.17,2.17v-2.444a.211.211,0,0,0-.211-.211.215.215,0,0,0-.211.211v2.444l-2.166-2.183a.211.211,0,0,0-.3,0,.215.215,0,0,0,0,.3l2.17,2.166h-2.444a.215.215,0,0,0-.211.211.211.211,0,0,0,.211.211h2.444l-2.17,2.17a.215.215,0,0,0,0,.3.219.219,0,0,0,.3,0l2.166-2.17v2.44a.211.211,0,1,0,.421,0v-2.44l2.17,2.17a.219.219,0,0,0,.3,0,.215.215,0,0,0,0-.3l-2.17-2.17h2.44a.2.2,0,1,0,0-.409Z" transform="translate(-435.765 -264.694)"/><path class="b" d="M767.89,425.83h-2.44l2.17-2.166a.215.215,0,0,0,0-.3.211.211,0,0,0-.3,0l-2.17,2.17v-2.444a.211.211,0,0,0-.211-.211.215.215,0,0,0-.211.211v2.444l-2.166-2.183a.211.211,0,0,0-.3,0,.215.215,0,0,0,0,.3l2.17,2.166h-2.444a.215.215,0,0,0-.211.211.211.211,0,0,0,.211.211h2.444l-2.17,2.17a.215.215,0,0,0,0,.3.219.219,0,0,0,.3,0l2.166-2.17v2.44a.211.211,0,0,0,.422,0v-2.44l2.17,2.17a.219.219,0,0,0,.3,0,.215.215,0,0,0,0-.3l-2.17-2.17h2.44a.2.2,0,1,0,0-.409Z" transform="translate(-447.916 -264.694)"/><path class="j" d="M849.419,502.823a7.547,7.547,0,0,0-.19-1.513c-.379-1.424-1.235-3.148-2.642-3.577a22.182,22.182,0,0,1-4.188-1.77c-.253-4.517.784-9.139-.345-13.518a34.385,34.385,0,0,1-1.3-4.774c-.232-2.039.324-4.214-.489-6.093A6.013,6.013,0,0,0,836.7,468.5a18.973,18.973,0,0,0-4.749-.843c-2.023-.164-8.571-.94-10.854.868h0a2.385,2.385,0,0,0-.421.421h0a1.681,1.681,0,0,0-.135.219l-.021.034a1.715,1.715,0,0,0-.114.274h0a2.122,2.122,0,0,0-.072.316v.758c.029.379.084.758.084,1.134a2.442,2.442,0,0,1-.051.556,3.894,3.894,0,0,1-.7,1.365h0l-.076.11c-.046.067-.093.131-.135.2s-.076.118-.11.177-.067.1-.1.152a2.059,2.059,0,0,0-.11.215c0,.042-.046.08-.063.122a2.074,2.074,0,0,0-.126.354,2.352,2.352,0,0,0-.025,1.121,4.173,4.173,0,0,0,.577,1.327c.105.173.219.341.337.51l.295.4a9.1,9.1,0,0,0-.089,1.18,8.718,8.718,0,0,0,3.328,6.851,25.808,25.808,0,0,1-.054,5.348c-.038.371-.084.746-.135,1.117s-.089.615-.139.923a4.277,4.277,0,0,1-1.841-.139,8.686,8.686,0,0,0-.843-.324c-1.226-.308-2.478.914-3.691.544a.5.5,0,0,1-.055.169,1.651,1.651,0,0,0-.843-.249,3.074,3.074,0,0,1-1.829-1.049l-1.605-1.513a1.771,1.771,0,0,1-.278-.312,2.187,2.187,0,0,1-.194-.518,5.972,5.972,0,0,0-1.555-2.229,1.053,1.053,0,0,0-.459-.333.708.708,0,0,0-.211,0,1.846,1.846,0,0,0-.139-.169,3.968,3.968,0,0,0-.35-.354c-.767-.708-.843-1.315-1.508-2.107a20.251,20.251,0,0,1-1.576-2.381c-.055-.442-.131-.9-.223-1.357a17.46,17.46,0,0,0-.923-3.076l-.843-1.867-.1.1c-.611-.91-1.264-1.407-1.85-1.289-.982.2-1.466,2.107-1.31,4.6l.337,2.528a.782.782,0,0,0,.046.19,4.665,4.665,0,0,0-.093.91c0,.354.329.615.5.931a2.633,2.633,0,0,1,.421,1.437c-.021.181-.076.354-.084.531a2.043,2.043,0,0,0,.4,1.1l2.107,3.54.421.742.025.034a1.8,1.8,0,0,0,.565.649,7.717,7.717,0,0,0,.7,2.558c.072.16.152.312.236.463a14.907,14.907,0,0,0,1.989,2.583l1,1.125c.99,1.1,1.98,2.212,3.055,3.232a4.093,4.093,0,0,0,1.365.957,1.546,1.546,0,0,0,1.534-.223q0,.784,0,1.567a.881.881,0,0,1,.666,1.386,34.754,34.754,0,0,1-3.118,6.6,14.046,14.046,0,0,1,2.612,1.993,11.748,11.748,0,0,1,1.361,1.841c.038.312.067.619.084.927.312,5.023-1.631,10.007-3.371,14.794a11.528,11.528,0,0,0-1.007,4.188,8.222,8.222,0,0,0-.944.678,6.249,6.249,0,0,1,.173,2.671,4.732,4.732,0,0,1-.35,1.685,11.838,11.838,0,0,1-.607,1.083,16.078,16.078,0,0,0-1.551,6.413c-.131,1.327.383,2.95-.219,4.138a16.925,16.925,0,0,0-2.107,6.481,6.5,6.5,0,0,1-.194,1.513c-.131.421-.362.78-.48,1.192a5.1,5.1,0,0,0-.084,1.685,16.129,16.129,0,0,1-.885,5.945c-.527,1.5-1.108,3.114-.7,4.66a6.569,6.569,0,0,0-1.782,3.914,6.17,6.17,0,0,1-.135,1.117,5.429,5.429,0,0,1-.506,1.074,9.4,9.4,0,0,0-1.146,5.056,14.065,14.065,0,0,0-2.271,5.933c-.375,2.1-.539,4.243-1.02,6.321-.64,2.747-1.8,5.524-2.027,8.339a5.874,5.874,0,0,0-2.216,4.159,18.511,18.511,0,0,1-.973,4.749c-.346.767-.843,1.454-1.171,2.237a10.277,10.277,0,0,0-.506,1.926,7.514,7.514,0,0,0-.131,3.16,4.763,4.763,0,0,1-1.235.94c.067-.261.122-.523.169-.788-1.087.986-3.059.64-3.927,1.825a1.778,1.778,0,0,0,.421,2.44,3.372,3.372,0,0,0,.872.375c2.107.674,4.273,1.353,6.439.994a1.921,1.921,0,0,0,.729-.232,2.345,2.345,0,0,0,.678-.784q.487-.771.969-1.542a20.02,20.02,0,0,0,2.364.552c.08.674.139,1.348.169,2.023.421.084.986.11,1.184-.282a1.024,1.024,0,0,0,.072-.468c0-.3.042-.7.067-1.1h.084a8.005,8.005,0,0,0,3.729-.754c-.451-3.733,1.037-7.382,2.326-10.913,1.361-3.716,2.528-7.5,3.7-11.284.843-2.663,1.774-5.242,2.6-7.909q1.559-5.056,3.131-10.113c.455-1.483.914-2.95,1.437-4.424a68.926,68.926,0,0,1,3.906-8.693c.421-.8.843-1.584,1.188-2.41.421-1.007.721-2.06,1.058-3.1a48.03,48.03,0,0,1,2.646-6.228c.029-.055.051-.105.08-.156.341,1.395.683,2.81.91,4.214a16.014,16.014,0,0,1,.072,5.208,17.168,17.168,0,0,0-.539,3.531c.063,1.648.944,3.143,1.378,4.732a18.006,18.006,0,0,1,.472,3.624c.118,1.9,1.146,4.024.421,5.781-2.254,5.566-1.163,11.853-2.448,17.7-.662,3-2.688,5.819-2.528,8.887q.168,3.266.573,6.514a6.2,6.2,0,0,0,.527,1.976,7.261,7.261,0,0,0,.577.944c-.185.072-.341.261-.476.662a2.6,2.6,0,0,0,.935,2.95,4.1,4.1,0,0,0,1.218.421,6.414,6.414,0,0,0,1.761.244,4.122,4.122,0,0,0,.552-.067,20.088,20.088,0,0,0,1.993.716,4.339,4.339,0,0,0,.055.518.645.645,0,0,0,.219.476.658.658,0,0,0,.337.059H833.9v-.573a1.883,1.883,0,0,0,1.454-.472,2.249,2.249,0,0,0,.421-.876q.935-3.173,1.858-6.35a20.3,20.3,0,0,0,.906-7.248c-.813-7.766.973-15.557.392-23.344a55.921,55.921,0,0,1,.716-14.006c.19-1.045.421-2.107.506-3.148.185-1.964-.042-3.948.1-5.9.046-.683.139-1.361.223-2.039a97.932,97.932,0,0,0,.906-12.7,40.024,40.024,0,0,0-.261-4.214,2.406,2.406,0,0,0,1.15-.674,2.866,2.866,0,0,0,.274-1.8,13.043,13.043,0,0,1,1.133-4.306,51.153,51.153,0,0,0,1.593-5.924,20.678,20.678,0,0,0,.708-4.951q0-.253-.025-.506a1.306,1.306,0,0,0,.388-.421,2.448,2.448,0,0,0,.2-.78c.152-1.075.308-2.153.459-3.232q.169-1.159.333-2.313l1.34-9.35c.114-.813.232-1.622.346-2.431l.35-2.419c.038-.287.08-.573.11-.843C850.51,507.07,849.529,504.778,849.419,502.823ZM838.24,537.83a7.7,7.7,0,0,1-.843-3.662h-.046a1.88,1.88,0,0,0-.055-1.188c-.131-.308-.358-.569-.5-.876a3.211,3.211,0,0,1-.227-1.18,32.167,32.167,0,0,1,.6-7.644c.055-.295.114-.594.169-.889a2.2,2.2,0,0,0,.48-.375,3.42,3.42,0,0,0,.543-.843c.476-.956.91-1.93,1.31-2.92.131-.32.32-.691.645-.771-.067,2.465.185,4.981-.817,7.205a4.559,4.559,0,0,0-.421,1.138c-.093.628.169,1.264.076,1.888-.046.324-.185.624-.24.944a.923.923,0,0,0,.244.893.737.737,0,0,0,.181.093c-.025.169-.046.341-.063.506-.034.346-.051.67-.072.872a27.184,27.184,0,0,0-.114,3.1c0,1.117.042,2.233.025,3.371a2.289,2.289,0,0,1-.16.957,1.661,1.661,0,0,1-.32.421A10.965,10.965,0,0,0,838.24,537.83Z" transform="translate(-461.609 -290.428)"/><ellipse class="k" cx="2.377" cy="6.729" rx="2.377" ry="6.729" transform="matrix(0.98, -0.201, 0.201, 0.98, 338.342, 185.803)"/><path class="d" d="M878.22,837.459a2.551,2.551,0,0,0,.935,2.92,4.164,4.164,0,0,0,1.209.421,6.381,6.381,0,0,0,1.757.24c.729-.034,1.428-.32,2.157-.421a.338.338,0,0,1,.249.034.358.358,0,0,1,.093.295,11.126,11.126,0,0,0,.093,1.239.636.636,0,0,0,.219.476.657.657,0,0,0,.337.059h2.284a22.272,22.272,0,0,0-.653-5.958,1.332,1.332,0,0,0-.169-.421,1.4,1.4,0,0,0-.729-.421,4.075,4.075,0,0,0-1.766-.308,5.172,5.172,0,0,0-1.98.969,3.017,3.017,0,0,1-2.246.544C879.248,836.924,878.612,836.287,878.22,837.459Z" transform="translate(-515.216 -503.512)"/><path class="k" d="M794.935,834.421a6.32,6.32,0,0,1-2.3,1.568l-.388.185a.269.269,0,0,0-.131.105.227.227,0,0,0,.042.19,2.726,2.726,0,0,0,3.093,1.125,1.639,1.639,0,0,0,.678-.354,2.224,2.224,0,0,0,.523-1.357,2.778,2.778,0,0,0-.063-1.555C795.8,833.009,795.584,833.607,794.935,834.421Z" transform="translate(-465.464 -502.323)"/><path class="d" d="M800.148,839.946a1.025,1.025,0,0,1-.072.468c-.2.388-.75.367-1.18.282a28.372,28.372,0,0,0-.518-4.256c-.817-.038-1.407.737-1.846,1.433l-1.129,1.791a2.334,2.334,0,0,1-.674.784,2,2,0,0,1-.729.232c-2.157.358-4.336-.32-6.417-.994a3.4,3.4,0,0,1-.872-.371,1.782,1.782,0,0,1-.421-2.435c.872-1.18,2.832-.843,3.919-1.82a9.809,9.809,0,0,1-.556,2.01c1.454-.219,2.431-1.551,3.6-2.44a2.217,2.217,0,0,1,1.028-.489,2.263,2.263,0,0,1,.843.089,9.887,9.887,0,0,1,3.708,1.825,4,4,0,0,1,1.327,1.382A10.229,10.229,0,0,1,800.148,839.946Z" transform="translate(-461.921 -502.657)"/><circle class="k" cx="8.705" cy="8.705" r="8.705" transform="translate(358.508 180.852)"/><path class="d" d="M916.694,615.542a20.643,20.643,0,0,1-.7,4.926,50.813,50.813,0,0,1-1.593,5.9,12.983,12.983,0,0,0-1.125,4.3,2.858,2.858,0,0,1-.278,1.8,2.622,2.622,0,0,1-1.23.7,1.538,1.538,0,0,0-1.037.923,6.511,6.511,0,0,1-.876-1.93q-1.134-3.472-2.107-6.982a.906.906,0,0,1,.059-.843,1.045,1.045,0,0,1,.367-.206,3.791,3.791,0,0,0,1.167-.75,1.707,1.707,0,0,0,.388-.5,2.272,2.272,0,0,0,.164-.952c0-1.117,0-2.229-.03-3.346a27.963,27.963,0,0,1,.118-3.089c0-.2.038-.527.072-.872.063-.662.19-1.428.548-1.685.535-.358,2.136.122,2.743.206,1.045.143,2.107.312,3.127.51A8.344,8.344,0,0,1,916.694,615.542Z" transform="translate(-532.331 -374.587)"/><path class="d" d="M832.578,508.484c-.337.674-1.146,1-1.77,1.424l-2.136,1.466a1.425,1.425,0,0,1-1.058.362,1.391,1.391,0,0,1-.788-.737.149.149,0,0,0,0-.034l-.443-.742-2.107-3.531a2.01,2.01,0,0,1-.392-1.087c0-.181.063-.35.08-.531a2.549,2.549,0,0,0-.421-1.433c-.169-.316-.506-.577-.5-.931a3.369,3.369,0,0,1,.236-1.361,2.756,2.756,0,0,1,.923-.986c.2-.143.4-.278.611-.421a1.2,1.2,0,0,1,.367-.169c.35-.072.7.219,1.049.232,1.521,1.02,2.107,2.95,3.3,4.34.674.792.742,1.4,1.5,2.107.122.11.24.228.354.35a2.453,2.453,0,0,1,.379.548C831.913,507.713,832.751,508.139,832.578,508.484Z" transform="translate(-483.366 -309.181)"/><path class="k" d="M875.741,509.2a7.843,7.843,0,0,1,.935,4.243,2.65,2.65,0,0,1-.367,1.117c-.607.931-1.879,1.1-2.988,1.155a1.761,1.761,0,0,0-1.3.421,1.18,1.18,0,0,0,.08,1.441,3.252,3.252,0,0,0,1.289.843,11.414,11.414,0,0,0,5.549,1.23c.885-.084,1.744-.341,2.625-.472a27.565,27.565,0,0,1,2.891-.16c1.146-.042,2.288-.156,3.43-.27l3.026-.3a.675.675,0,0,0,.451-.164c.223-.261-.063-.645-.341-.843-1.605-1.188-3.649-2.006-4.563-3.792a22.3,22.3,0,0,1-.864-2.756,23.145,23.145,0,0,1-1-2.659,17.633,17.633,0,0,1-.139-2.452,3.29,3.29,0,0,0-.843-2.242,3.513,3.513,0,0,0-2.292-.737,7.42,7.42,0,0,0-5.587,1.812c-.383.383-.712.843-1.108,1.188s-.935.447-.674.9.775.737,1.053,1.138A9.7,9.7,0,0,1,875.741,509.2Z" transform="translate(-511.587 -310.935)"/><path class="d" d="M880.376,532.215a47.874,47.874,0,0,1-2.579,9.493,35.753,35.753,0,0,0-1.517,4.256c-.324,1.306-.261,2.705-.56,4.016-.371,1.631-.742,3.266-1.041,4.909a32.191,32.191,0,0,0-.6,7.627,3.191,3.191,0,0,0,.228,1.175c.139.3.362.565.493.877a2.106,2.106,0,0,1-.118,1.685,4.881,4.881,0,0,1-.868,1.315c-3.927,1.171-8.128.788-12.22,1.037-3.771.227-7.585,1-11.3.358-.421-1.685.282-3.451.885-5.094,1.749-4.774,3.683-9.746,3.371-14.748a15.256,15.256,0,0,0-.2-1.74,23.07,23.07,0,0,1,1.121-10.648,18.275,18.275,0,0,0,.48-6.649,12.148,12.148,0,0,1-.03-2.178,3.831,3.831,0,0,1,.792-2.035c0-.029.038-.059.059-.089a.579.579,0,0,1,.316,0h0a.27.27,0,0,0,.211,0l.046-.029a.105.105,0,0,1,.122,0c.1.059.152.261.362.3a8.373,8.373,0,0,0,.94.089,5.064,5.064,0,0,1,1.121.16h.051a3.29,3.29,0,0,0,1.635-.139,4.345,4.345,0,0,0,1-.388c.093-.1.674-.194.792-.266.383-.232.3-1.319.379-1.766a4.856,4.856,0,0,1,.316-1.306,2.225,2.225,0,0,1,1.8-1.049,9.6,9.6,0,0,1,2.161.194c1.572.223,3.181.185,4.724.548a3.519,3.519,0,0,0,2.334.1c.194.046.223.215.223.421a2.693,2.693,0,0,1-.118.577c-.27,1.163.645,2.233,1.487,3.076a4.769,4.769,0,0,0,1.243.99c.421.194.843.274,1.264.485a2.3,2.3,0,0,1,.843.771,3.218,3.218,0,0,1,.48,1.226A7.332,7.332,0,0,1,880.376,532.215Z" transform="translate(-499.059 -321.691)"/><path class="l" d="M885.821,538.185a47.873,47.873,0,0,1-2.579,9.493,35.764,35.764,0,0,0-1.517,4.256c-.324,1.306-.261,2.705-.56,4.016-.371,1.631-.742,3.266-1.041,4.909-.089.051-.181.1-.274.139a6.467,6.467,0,0,1-1.652.531,10.114,10.114,0,0,1-3.084-.1l-6.013-.8c-2.4-.324-4.96-.716-6.742-2.343a14.388,14.388,0,0,1-2.351-3.211,15.282,15.282,0,0,0-.2-1.74,23.069,23.069,0,0,1,1.121-10.648,18.274,18.274,0,0,0,.48-6.649,12.137,12.137,0,0,1-.03-2.178,3.83,3.83,0,0,1,.792-2.035,3,3,0,0,1,.375-.084h0a1.859,1.859,0,0,1,.257-.034h.122a1.842,1.842,0,0,1,.421.051,7.614,7.614,0,0,1,.843.325h.051a3.229,3.229,0,0,0,1.121.16c.556,0,1.129-.089,1.686-.126a3.11,3.11,0,0,1,2,.358,11.977,11.977,0,0,1,1.112,1.016,4.778,4.778,0,0,0,1.4.763,14.912,14.912,0,0,0,11.217-.236,2.195,2.195,0,0,1,1.125-.287,2.108,2.108,0,0,1,.809.346c.253.147.5.291.758.421a3.221,3.221,0,0,1,.48,1.226A7.333,7.333,0,0,1,885.821,538.185Z" transform="translate(-504.504 -327.66)"/><path class="b" d="M884.494,534.285a22.486,22.486,0,0,1-4.8-2.107,2.152,2.152,0,0,0-.809-.345,2.261,2.261,0,0,0-1.129.286,14.9,14.9,0,0,1-11.213.236,4.877,4.877,0,0,1-1.4-.763,12.6,12.6,0,0,0-1.112-1.015c-1.386-.9-3.3.156-4.854-.421a8.569,8.569,0,0,0-.843-.324c-1.226-.308-2.473.914-3.678.544a20.484,20.484,0,0,0-.99,3.759,40.974,40.974,0,0,0-.274,4.433c0,.889-.042,1.778,0,2.667a.875.875,0,0,1,.666,1.382,34.531,34.531,0,0,1-3.11,6.578,14.3,14.3,0,0,1,2.6,1.989c1.475,1.559,2.2,3.746,3.792,5.187,1.8,1.622,4.353,2.018,6.742,2.339l6.013.8a10.28,10.28,0,0,0,3.089.105,6.5,6.5,0,0,0,1.648-.535,2.95,2.95,0,0,0,.919-.607,3.369,3.369,0,0,0,.543-.843c.476-.952.91-1.926,1.311-2.912.139-.35.35-.758.729-.788,2.233-2.014,4.34-4.079,6.573-6.093a14.564,14.564,0,0,0,2.4-2.528c1.108-1.639.1-3.961,0-5.941a7.5,7.5,0,0,0-.19-1.5C886.748,536.43,885.9,534.711,884.494,534.285Z" transform="translate(-499.507 -326.55)"/><path class="l" d="M837.767,518.045c-.337.674-1.146,1-1.77,1.424l-2.136,1.466a1.425,1.425,0,0,1-1.058.362,1.391,1.391,0,0,1-.788-.737v-.3a2.829,2.829,0,0,1,.135-1.007,3.14,3.14,0,0,1,.944-1.214,7.728,7.728,0,0,1,2.768-1.686.949.949,0,0,1,.506-.051.665.665,0,0,1,.185.08,2.446,2.446,0,0,1,.379.548C837.1,517.274,837.94,517.7,837.767,518.045Z" transform="translate(-488.554 -318.742)"/><path class="b" d="M843.516,522.861a3.07,3.07,0,0,1-1.825-1.045l-1.6-1.483a1.491,1.491,0,0,1-.278-.312,2.187,2.187,0,0,1-.194-.518,5.946,5.946,0,0,0-1.551-2.225,1.012,1.012,0,0,0-.459-.329.923.923,0,0,0-.51.051,7.707,7.707,0,0,0-2.768,1.685,3.147,3.147,0,0,0-.944,1.214,2.8,2.8,0,0,0-.135,1.007,7.737,7.737,0,0,0,.733,3.219c.072.156.152.312.236.464a14.589,14.589,0,0,0,1.981,2.575l1,1.121c.986,1.1,1.972,2.208,3.042,3.223a4.02,4.02,0,0,0,1.365.952,1.525,1.525,0,0,0,1.568-.253,2.267,2.267,0,0,0,.447-.8,15.76,15.76,0,0,0,1.3-5.254,19.848,19.848,0,0,0-.093-2.178C844.775,523.206,844.232,522.907,843.516,522.861Z" transform="translate(-489.272 -319.116)"/><path class="m" d="M848.751,644.336a97.359,97.359,0,0,1-.9,12.67c-.084.678-.177,1.357-.223,2.035-.139,1.968.089,3.944-.1,5.9-.1,1.058-.316,2.107-.5,3.139a55.815,55.815,0,0,0-.716,13.968c.581,7.766-1.2,15.536-.392,23.281a18.814,18.814,0,0,1-.249,4.5,19.088,19.088,0,0,1-.653,2.722q-.923,3.165-1.854,6.32a2.191,2.191,0,0,1-.421.876,2,2,0,0,1-1.58.468,18.226,18.226,0,0,1-6.927-2.149,2.412,2.412,0,0,1-.7-.421c-.459-.476-.421-1.226-.624-1.854a17.639,17.639,0,0,0-1.062-1.862,6.079,6.079,0,0,1-.459-1.917q-.422-3.236-.573-6.5c-.16-3.059,1.862-5.874,2.528-8.849,1.264-5.849.194-12.119,2.44-17.668.708-1.753-.32-3.877-.421-5.764a18.278,18.278,0,0,0-.472-3.615c-.421-1.584-1.31-3.076-1.374-4.719a17.334,17.334,0,0,1,.535-3.518,15.811,15.811,0,0,0-.072-5.2c-.223-1.416-.565-2.832-.906-4.214l-.076.156a47.606,47.606,0,0,0-2.642,6.215c-.337,1.032-.632,2.086-1.053,3.089-.346.843-.771,1.614-1.188,2.406a69.1,69.1,0,0,0-3.9,8.659c-.523,1.458-.982,2.95-1.437,4.412l-3.122,10.113c-.843,2.659-1.766,5.229-2.591,7.884-1.167,3.792-2.334,7.551-3.691,11.259-1.264,3.518-2.768,7.163-2.318,10.88a8,8,0,0,1-3.721.754,21.784,21.784,0,0,1-6.32-1.534,4.914,4.914,0,0,1-2.183-1.3c-.935-1.142-.7-2.815-.421-4.268a10.315,10.315,0,0,1,.506-1.921c.32-.775.843-1.462,1.171-2.229a18.7,18.7,0,0,0,.965-4.732,5.839,5.839,0,0,1,2.208-4.151c.232-2.806,1.386-5.575,2.023-8.318.48-2.077.641-4.214,1.02-6.321a13.882,13.882,0,0,1,2.263-5.92,9.383,9.383,0,0,1,1.146-5.056,5.534,5.534,0,0,0,.5-1.074,6.174,6.174,0,0,0,.135-1.112,6.578,6.578,0,0,1,1.778-3.906c-.421-1.538.164-3.143.691-4.635a16.105,16.105,0,0,0,.885-5.929,5.194,5.194,0,0,1,.08-1.685c.118-.421.35-.78.484-1.184a6.735,6.735,0,0,0,.19-1.513,17.5,17.5,0,0,1,2.107-6.464c.607-1.188.093-2.8.219-4.125a15.946,15.946,0,0,1,1.551-6.392c.2-.362.421-.708.6-1.083a4.688,4.688,0,0,0,.35-1.686,6.207,6.207,0,0,0-.173-2.663c2.254-1.875,5.33-2.4,8.263-2.528s5.9.139,8.769-.485c.843-.19,1.685-.451,2.575-.577a16.657,16.657,0,0,1,6.059.619,7.217,7.217,0,0,0,.843,3.653,39.219,39.219,0,0,1,3.122,15.051Z" transform="translate(-468.972 -381.6)"/><path class="l" d="M886.663,673.29l-4.841,10.888c-.223-1.416-.565-2.832-.906-4.214l-.076.156v-.228l2.638-5.8Z" transform="translate(-516.808 -409.589)"/><path class="l" d="M919.924,615.542a1.821,1.821,0,0,1-.961.358,4.671,4.671,0,0,1-1.576-.215l-3.792-.948a1.86,1.86,0,0,1-.346-.122c.063-.661.19-1.428.548-1.685.535-.358,2.136.122,2.743.206,1.045.143,2.107.312,3.127.51A8.346,8.346,0,0,1,919.924,615.542Z" transform="translate(-535.561 -374.587)"/><path class="b" d="M922.591,557.963c.08.35.194.7.261,1.049a8.009,8.009,0,0,1-.089,2.608l-.345,2.41-.346,2.423-1.336,9.325-.329,2.309-.463,3.223a2.318,2.318,0,0,1-.2.775,1.614,1.614,0,0,1-1.319.779,4.778,4.778,0,0,1-1.576-.215l-3.792-.952a1.188,1.188,0,0,1-.464-.19.914.914,0,0,1-.244-.889c.055-.32.194-.619.24-.94.093-.624-.169-1.264-.076-1.883a4.686,4.686,0,0,1,.421-1.133c1.264-2.794.531-6.055.961-9.089a13.778,13.778,0,0,1,2.924-6.506,18.675,18.675,0,0,1,3.228-3.169,6.5,6.5,0,0,1,1.816-1.264C922.625,556.475,922.465,557.432,922.591,557.963Z" transform="translate(-535.021 -342.078)"/><path class="m" d="M863.191,470.733c-.278.885.156,1.858-.042,2.76-.215.994-1.15,1.685-1.416,2.684-.421,1.521.868,2.907,1.812,4.172,3.5,4.694,3.038,11.192,1.841,16.918A87.35,87.35,0,0,1,861.4,510.75a10.334,10.334,0,0,1-2.145,3.763c1.938-.556,4-1.117,5.941-.577,2.461.683,4.585,3.072,7.079,2.528,1.5-.333,2.553-1.664,3.9-2.4,2.528-1.361,5.575-.506,8.394-.067a3.3,3.3,0,0,0,1.833-.093,3.046,3.046,0,0,0,1.112-1.024,10.392,10.392,0,0,0,2.166-5.6,7.188,7.188,0,0,0-2.069-5.533,11.83,11.83,0,0,1-1.774-1.686,5.232,5.232,0,0,1-.7-2.553c-.333-4.635.8-9.367-.367-13.85a34.208,34.208,0,0,1-1.294-4.761c-.232-2.035.32-4.214-.489-6.076a5.959,5.959,0,0,0-3.552-3.068,19.46,19.46,0,0,0-4.736-.843C872.4,468.71,864.156,467.72,863.191,470.733Z" transform="translate(-504.321 -291.145)"/><g class="n" transform="translate(354.939 178.623)"><path d="M868.361,505.868A87.189,87.189,0,0,1,864.4,519.3c.291-.577.535-1.184.767-1.787a86.9,86.9,0,0,0,3.982-13.484c1.2-5.731,1.66-12.22-1.837-16.918-.843-1.121-1.926-2.334-1.888-3.649a4.491,4.491,0,0,0-.716,1.323c-.421,1.521.868,2.907,1.812,4.172C870.017,493.644,869.557,500.142,868.361,505.868Z" transform="translate(-862.234 -478.37)"/><path d="M868.458,474.679a4.1,4.1,0,0,0,.742-1.42,7.222,7.222,0,0,0-.051-1.879,2.027,2.027,0,0,0-.7.965A8.334,8.334,0,0,0,868.458,474.679Z" transform="translate(-864.518 -471.38)"/><path d="M888.313,567.259a3.033,3.033,0,0,1-1.112,1.02,3.219,3.219,0,0,1-1.833.093c-2.819-.421-5.9-1.289-8.394.072-1.353.733-2.4,2.065-3.906,2.4-2.49.556-4.614-1.833-7.075-2.528a9.876,9.876,0,0,0-5.339.421,7.362,7.362,0,0,1-1.395,2.014c1.938-.556,4-1.117,5.941-.577,2.461.683,4.584,3.072,7.079,2.528,1.5-.333,2.553-1.664,3.9-2.4,2.528-1.361,5.575-.506,8.394-.067a3.3,3.3,0,0,0,1.833-.093,3.047,3.047,0,0,0,1.112-1.024,11.329,11.329,0,0,0,1.744-3.337A12.263,12.263,0,0,1,888.313,567.259Z" transform="translate(-859.26 -526.003)"/></g></g></svg>