<svg xmlns="http://www.w3.org/2000/svg" xmlns:xlink="http://www.w3.org/1999/xlink" width="226.933" height="316.444" viewBox="0 0 226.933 316.444">
  <defs>
    <style>
      .cls-1 {
        opacity: 0.2;
      }

      .cls-2 {
        fill: #3f3d56;
      }

      .cls-3 {
        fill: #6c63ff;
      }

      .cls-18, .cls-4 {
        opacity: 0.1;
      }

      .cls-5 {
        fill: url(#linear-gradient);
      }

      .cls-6 {
        opacity: 0.9;
      }

      .cls-7 {
        fill: #e5e7eb;
      }

      .cls-8 {
        fill: #fff;
      }

      .cls-9 {
        fill: #ececf3;
      }

      .cls-10 {
        opacity: 0.4;
      }

      .cls-11 {
        fill: #d6d8e0;
      }

      .cls-12 {
        fill: url(#linear-gradient-2);
      }

      .cls-13 {
        opacity: 0.5;
      }

      .cls-14 {
        fill: url(#linear-gradient-3);
      }

      .cls-15 {
        fill: #a0616a;
      }

      .cls-16 {
        fill: #2d293d;
      }

      .cls-17 {
        fill: #f86d70;
      }
    </style>
    <linearGradient id="linear-gradient" x1="0.5" y1="1" x2="0.5" gradientUnits="objectBoundingBox">
      <stop offset="0" stop-color="gray" stop-opacity="0.251"/>
      <stop offset="0.54" stop-color="gray" stop-opacity="0.122"/>
      <stop offset="1" stop-color="gray" stop-opacity="0.102"/>
    </linearGradient>
    <linearGradient id="linear-gradient-2" x1="0.5" y1="1" x2="0.5" y2="0" xlink:href="#linear-gradient"/>
    <linearGradient id="linear-gradient-3" x1="-0.001" y1="0.5" x2="1" y2="0.5" xlink:href="#linear-gradient"/>
  </defs>
  <g id="posts" transform="translate(-0.093 13.699)">
    <g id="Group_447" data-name="Group 447" class="cls-1" transform="translate(126.989 109.711)">
      <path id="Path_327" data-name="Path 327" class="cls-2" d="M753.466,755.93a11.731,11.731,0,0,1-1.064,1.639q-5.3-3.727-10.782-7.317l.237-.469a10.352,10.352,0,0,1,3.666-3.994,6.125,6.125,0,0,1,6.162-.5,6.194,6.194,0,0,1,3.026,5.381,10.388,10.388,0,0,1-1.246,5.265Z" transform="translate(-741.62 -603.647)"/>
      <ellipse id="Ellipse_43" data-name="Ellipse 43" class="cls-2" cx="8.598" cy="6.566" rx="8.598" ry="6.566" transform="translate(1.135 144.501) rotate(-62.09)"/>
      <ellipse id="Ellipse_44" data-name="Ellipse 44" class="cls-2" cx="8.598" cy="6.566" rx="8.598" ry="6.566" transform="translate(6.055 135.215) rotate(-62.09)"/>
      <ellipse id="Ellipse_45" data-name="Ellipse 45" class="cls-2" cx="8.598" cy="6.566" rx="8.598" ry="6.566" transform="translate(10.974 125.929) rotate(-62.09)"/>
      <ellipse id="Ellipse_46" data-name="Ellipse 46" class="cls-2" cx="8.598" cy="6.566" rx="8.598" ry="6.566" transform="translate(15.889 116.649) rotate(-62.09)"/>
      <path id="Path_328" data-name="Path 328" class="cls-3" d="M780,502.08a31.127,31.127,0,0,1-.5-4.327l16.6,5.588-16.556-8.613a31.493,31.493,0,0,1,11.135-22.305l16.042,23.2-12.456-25.8A31.453,31.453,0,1,1,823.7,525.237a31.478,31.478,0,0,1,.5,6.753l-25.215-.2,24.852,4.095a31.453,31.453,0,0,1-18.3,23.7,31.453,31.453,0,1,1-43.7-23.142,31.463,31.463,0,0,1,18.205-34.368Z" transform="translate(-742.368 -465.029)"/>
      <path id="Path_329" data-name="Path 329" class="cls-4" d="M820.5,613.864A31.337,31.337,0,0,1,805.456,627.9a31.453,31.453,0,1,1-43.7-23.142C760.538,598.054,822.158,610.742,820.5,613.864Z" transform="translate(-742.328 -533.337)"/>
    </g>
    <g id="Group_448" data-name="Group 448" class="cls-1" transform="translate(0.093 -13.699)">
      <path id="Path_330" data-name="Path 330" class="cls-2" d="M476.389,668.612a21.821,21.821,0,0,0,1.205,3.555q11.654-4.463,23.576-8.573c-.071-.323-.141-.656-.222-1.009a19.935,19.935,0,0,0-4.957-9.188c-3.172-3.268-7.287-4.861-11.246-3.893s-6.874,4.271-8.19,8.618A19.945,19.945,0,0,0,476.389,668.612Z" transform="translate(-367.004 -355.723)"/>
      <ellipse id="Ellipse_47" data-name="Ellipse 47" class="cls-2" cx="12.643" cy="16.546" rx="12.643" ry="16.546" transform="translate(100.68 277.136) rotate(-13.72)"/>
      <ellipse id="Ellipse_48" data-name="Ellipse 48" class="cls-2" cx="12.643" cy="16.546" rx="12.643" ry="16.546" transform="translate(95.879 257.487) rotate(-13.72)"/>
      <ellipse id="Ellipse_49" data-name="Ellipse 49" class="cls-2" cx="12.643" cy="16.546" rx="12.643" ry="16.546" transform="translate(91.083 237.838) rotate(-13.72)"/>
      <ellipse id="Ellipse_50" data-name="Ellipse 50" class="cls-2" cx="12.643" cy="16.546" rx="12.643" ry="16.546" transform="translate(86.288 218.195) rotate(-13.72)"/>
      <path id="Path_331" data-name="Path 331" class="cls-3" d="M375.721,152.84a59.834,59.834,0,0,0,2.93-7.847l-33.561,2.577,34.978-8.275a60.677,60.677,0,0,0-10.252-46.9l-40.908,35.734,35.432-42.275a60.551,60.551,0,1,0-81.1,89.538,60.178,60.178,0,0,0-4.09,12.365l47.2,11.538L278.039,195.2a60.586,60.586,0,0,0,22.966,52.951,60.551,60.551,0,1,0,92.473-22.567,60.556,60.556,0,0,0-17.756-72.745Z" transform="translate(-260.093 -67.221)"/>
      <path id="Path_332" data-name="Path 332" class="cls-4" d="M298.644,357.138a60.269,60.269,0,0,0,21.463,33.283,60.551,60.551,0,1,0,92.473-22.567C418.021,355.933,297.03,350.537,298.644,357.138Z" transform="translate(-279.195 -209.522)"/>
    </g>
    <path id="Path_333" data-name="Path 333" class="cls-5" d="M633.332,131.631h-1.125V84.723C632.208,74.378,621.2,66,607.618,66H469.88c-13.581,0-24.589,8.386-24.589,18.723v19.444h-.328a1.313,1.313,0,0,0-1.447,1.1v9.361a1.313,1.313,0,0,0,1.447,1.1h.353v9.56h-.444a1.307,1.307,0,0,0-1.442,1.1v17.9a1.311,1.311,0,0,0,1.442,1.1h.444v7.021h-.383a1.675,1.675,0,0,0-1.019.318,1,1,0,0,0-.428.782v18.075a1,1,0,0,0,.428.782,1.675,1.675,0,0,0,1.019.318h.383V336.662c0,10.344,11.009,18.723,24.589,18.723H607.613c13.581,0,24.589-8.386,24.589-18.723V166.713h1.13a1.313,1.313,0,0,0,1.447-1.1V132.731a1.313,1.313,0,0,0-1.447-1.1Z" transform="translate(-421.624 -72.766)"/>
    <g id="Group_449" data-name="Group 449" class="cls-6" transform="translate(24.864 -4.244)">
      <rect id="Rectangle_663" data-name="Rectangle 663" class="cls-7" width="5.431" height="44.791" rx="2.29" transform="translate(180.714 61.942)"/>
      <rect id="Rectangle_664" data-name="Rectangle 664" class="cls-7" width="3.051" height="14.746" rx="1.525" transform="translate(0.111 48.73)"/>
      <rect id="Rectangle_665" data-name="Rectangle 665" class="cls-7" width="3.439" height="25.664" rx="1.72" transform="translate(0 57.06)"/>
      <rect id="Rectangle_666" data-name="Rectangle 666" class="cls-7" width="3.273" height="25.885" rx="1.636" transform="translate(0.055 83.148)"/>
      <rect id="Rectangle_667" data-name="Rectangle 667" class="cls-8" width="181.808" height="284.75" rx="38.99" transform="translate(1.836)"/>
      <rect id="Rectangle_668" data-name="Rectangle 668" class="cls-7" width="25.391" height="5.154" rx="2.577" transform="translate(75.206 11.034)"/>
      <circle id="Ellipse_51" data-name="Ellipse 51" class="cls-7" cx="2.925" cy="2.925" r="2.925" transform="translate(104.429 10.686)"/>
    </g>
    <path id="Path_334" data-name="Path 334" class="cls-9" d="M619.654,90.09H598.842V92c0,4.977-5.326,9.01-11.891,9.01H520.6c-6.565,0-11.889-4.033-11.891-9.01V90.09H489.178c-7.974,0-14.438,4.9-14.438,10.944V344.647c0,6.044,6.464,10.944,14.438,10.944H619.654c7.974,0,14.438-4.9,14.438-10.944V101.034C634.092,94.99,627.628,90.09,619.654,90.09Z" transform="translate(-434.785 -84.707)"/>
    <ellipse id="Ellipse_52" data-name="Ellipse 52" class="cls-3" cx="28.841" cy="4.877" rx="28.841" ry="4.877" transform="translate(15.21 283.592)"/>
    <path id="Path_335" data-name="Path 335" class="cls-3" d="M344.672,790.6a8.444,8.444,0,0,0,2.748-4.15,3.7,3.7,0,0,0-1.921-4.226c-1.765-.676-3.651.545-5.078,1.78s-3.071,2.648-4.942,2.385a7.514,7.514,0,0,0,2.325-7.06,2.91,2.91,0,0,0-.646-1.427c-.978-1.049-2.753-.6-3.928.227-3.727,2.622-4.771,7.691-4.791,12.254a23.075,23.075,0,0,1-.071-5.043c-.01-1.679-.469-3.56-1.891-4.468a5.744,5.744,0,0,0-2.895-.676c-1.674-.061-3.53.106-4.685,1.331-1.427,1.513-1.054,4.08.182,5.759s3.122,2.728,4.856,3.888a10.754,10.754,0,0,1,3.465,3.308,2.982,2.982,0,0,1,.257.59h10.5A29.457,29.457,0,0,0,344.672,790.6Z" transform="translate(-288.694 -510.106)"/>
    <g id="Group_450" data-name="Group 450" class="cls-10" transform="translate(180.323 249.479)">
      <ellipse id="Ellipse_53" data-name="Ellipse 53" class="cls-3" cx="16.46" cy="2.784" rx="16.46" ry="2.784" transform="translate(0 9.377)"/>
      <path id="Path_336" data-name="Path 336" class="cls-3" d="M878.537,749.792a4.811,4.811,0,0,0,1.573-2.365,2.113,2.113,0,0,0-1.1-2.416c-1.009-.383-2.083.313-2.9,1.009s-1.75,1.513-2.819,1.362a4.281,4.281,0,0,0,1.326-4.034,1.644,1.644,0,0,0-.368-.812c-.56-.6-1.573-.343-2.239.126-2.128,1.513-2.723,4.392-2.738,6.995a13.388,13.388,0,0,1-.035-2.88,2.985,2.985,0,0,0-1.084-2.552,3.288,3.288,0,0,0-1.649-.383,3.435,3.435,0,0,0-2.678.756,2.664,2.664,0,0,0,.106,3.288,10.286,10.286,0,0,0,2.774,2.219,6.2,6.2,0,0,1,1.977,1.886,1.709,1.709,0,0,1,.146.338h6A16.644,16.644,0,0,0,878.537,749.792Z" transform="translate(-855.274 -742.185)"/>
    </g>
    <g id="Group_451" data-name="Group 451" class="cls-10" transform="translate(44.152 232.46)">
      <ellipse id="Ellipse_54" data-name="Ellipse 54" class="cls-3" cx="16.46" cy="2.784" rx="16.46" ry="2.784" transform="translate(0 9.378)"/>
      <path id="Path_337" data-name="Path 337" class="cls-3" d="M378.627,687.761a4.756,4.756,0,0,0,1.568-2.37,2.1,2.1,0,0,0-1.1-2.411c-1.009-.383-2.083.313-2.895,1.009s-1.755,1.513-2.819,1.362a4.307,4.307,0,0,0,1.326-4.034,1.7,1.7,0,0,0-.368-.817c-.56-.6-1.573-.338-2.244.131-2.128,1.513-2.723,4.387-2.733,6.99a13.069,13.069,0,0,1-.04-2.88,2.89,2.89,0,0,0-1.079-2.521,3.257,3.257,0,0,0-1.654-.388,3.407,3.407,0,0,0-2.673.761,2.664,2.664,0,0,0,.106,3.288,10.44,10.44,0,0,0,2.769,2.219,6.1,6.1,0,0,1,1.977,1.886,2.073,2.073,0,0,1,.151.338h6a16.789,16.789,0,0,0,3.712-2.562Z" transform="translate(-355.359 -680.153)"/>
    </g>
    <rect id="Rectangle_669" data-name="Rectangle 669" class="cls-11" width="25.764" height="25.764" transform="translate(76.518 32.065)"/>
    <rect id="Rectangle_670" data-name="Rectangle 670" class="cls-11" width="53.98" height="4.907" transform="translate(99.023 33.906)"/>
    <rect id="Rectangle_671" data-name="Rectangle 671" class="cls-11" width="88.943" height="4.907" transform="translate(89.892 42.494)"/>
    <rect id="Rectangle_672" data-name="Rectangle 672" class="cls-11" width="88.943" height="4.907" transform="translate(89.892 51.082)"/>
    <rect id="Rectangle_673" data-name="Rectangle 673" class="cls-11" width="25.764" height="25.764" transform="translate(76.643 59.124)"/>
    <rect id="Rectangle_674" data-name="Rectangle 674" class="cls-11" width="53.98" height="4.907" transform="translate(99.141 61.657)"/>
    <rect id="Rectangle_675" data-name="Rectangle 675" class="cls-11" width="88.943" height="4.907" transform="translate(89.999 68.342)"/>
    <rect id="Rectangle_676" data-name="Rectangle 676" class="cls-11" width="88.943" height="4.907" transform="translate(89.999 75.023)"/>
    <rect id="Rectangle_677" data-name="Rectangle 677" class="cls-11" width="25.764" height="25.764" transform="translate(76.768 95.285)"/>
    <rect id="Rectangle_678" data-name="Rectangle 678" class="cls-11" width="53.98" height="4.907" transform="translate(99.262 98.418)"/>
    <rect id="Rectangle_679" data-name="Rectangle 679" class="cls-11" width="88.943" height="4.907" transform="translate(90.109 105.103)"/>
    <rect id="Rectangle_680" data-name="Rectangle 680" class="cls-11" width="88.943" height="4.907" transform="translate(90.109 111.787)"/>
    <rect id="Rectangle_681" data-name="Rectangle 681" class="cls-11" width="25.764" height="25.764" transform="translate(76.892 131.442)"/>
    <rect id="Rectangle_682" data-name="Rectangle 682" class="cls-11" width="53.98" height="4.907" transform="translate(99.379 135.183)"/>
    <rect id="Rectangle_683" data-name="Rectangle 683" class="cls-11" width="88.943" height="4.907" transform="translate(90.216 141.867)"/>
    <rect id="Rectangle_684" data-name="Rectangle 684" class="cls-11" width="88.943" height="4.907" transform="translate(90.216 148.552)"/>
    <rect id="Rectangle_685" data-name="Rectangle 685" class="cls-11" width="25.764" height="25.764" transform="translate(77.02 167.603)"/>
    <rect id="Rectangle_686" data-name="Rectangle 686" class="cls-11" width="53.98" height="4.907" transform="translate(99.497 171.947)"/>
    <rect id="Rectangle_687" data-name="Rectangle 687" class="cls-11" width="88.943" height="4.907" transform="translate(90.322 178.632)"/>
    <rect id="Rectangle_688" data-name="Rectangle 688" class="cls-11" width="88.943" height="4.907" transform="translate(90.322 185.317)"/>
    <rect id="Rectangle_689" data-name="Rectangle 689" class="cls-11" width="25.764" height="25.764" transform="translate(77.145 203.764)"/>
    <rect id="Rectangle_690" data-name="Rectangle 690" class="cls-11" width="53.98" height="4.907" transform="translate(99.615 208.712)"/>
    <rect id="Rectangle_691" data-name="Rectangle 691" class="cls-11" width="88.943" height="4.907" transform="translate(90.429 215.397)"/>
    <rect id="Rectangle_692" data-name="Rectangle 692" class="cls-11" width="88.943" height="4.907" transform="translate(90.429 222.082)"/>
    <rect id="Rectangle_693" data-name="Rectangle 693" class="cls-11" width="25.764" height="25.764" transform="translate(77.27 230.702)"/>
    <rect id="Rectangle_694" data-name="Rectangle 694" class="cls-11" width="53.98" height="4.907" transform="translate(99.733 232.543)"/>
    <rect id="Rectangle_695" data-name="Rectangle 695" class="cls-11" width="88.943" height="4.907" transform="translate(90.536 241.131)"/>
    <rect id="Rectangle_696" data-name="Rectangle 696" class="cls-11" width="88.943" height="4.907" transform="translate(90.536 249.719)"/>
    <rect id="Rectangle_697" data-name="Rectangle 697" class="cls-12" width="219.595" height="54.59" transform="translate(0.093 80.074)"/>
    <rect id="Rectangle_698" data-name="Rectangle 698" class="cls-8" width="217.755" height="52.139" transform="translate(0.093 81.21)"/>
    <rect id="Rectangle_699" data-name="Rectangle 699" class="cls-3" width="25.764" height="25.764" transform="translate(77.087 93.478)"/>
    <g id="Group_452" data-name="Group 452" class="cls-13" transform="translate(90.383 95.201)">
      <rect id="Rectangle_700" data-name="Rectangle 700" class="cls-3" width="53.98" height="4.907"/>
      <rect id="Rectangle_701" data-name="Rectangle 701" class="cls-3" width="88.943" height="4.907" transform="translate(0 8.588)"/>
      <rect id="Rectangle_702" data-name="Rectangle 702" class="cls-3" width="88.943" height="4.907" transform="translate(0 17.176)"/>
    </g>
    <path id="Path_338" data-name="Path 338" class="cls-14" d="M494.279,388.13a4.487,4.487,0,0,0-5.3-.807,7.784,7.784,0,0,0-2.632,3.565c-.943,2.017-2.325,3.9-2.748,6.082-1.165,6.006-5.946,10.671-7.862,16.475-.686,2.073-1.009,4.3-2.093,6.188a19.693,19.693,0,0,1-1.715,2.36,66.466,66.466,0,0,0-6.556,10,8.047,8.047,0,0,0-2.985,1.856,10.3,10.3,0,0,1-4.034,1.911,3.808,3.808,0,0,0-1.654.605c-.7.58-.792,1.624-1.357,2.325a3.621,3.621,0,0,1-1.513,1.009c0-.176-.025-.353-.03-.535-.025-.933-.04-1.871-.04-2.809a10.56,10.56,0,0,0-.03-13.707,20.676,20.676,0,0,1,.58-4.332,1.924,1.924,0,0,0-.409-1.987c-.277-.217-.635-.3-.933-.5a4.065,4.065,0,0,1-1.009-1.281,5.446,5.446,0,0,0-6.848-1.75c-1.82.958-2.925,2.875-4.539,4.176-.827.666-1.78,1.165-2.607,1.836a10.827,10.827,0,0,0-3.374,5.487,31.427,31.427,0,0,0-.918,6.475,5.845,5.845,0,0,0,.076,1.967,5.193,5.193,0,0,0,.741,1.513,16.955,16.955,0,0,0,6.268,5.976,2.447,2.447,0,0,1,0,.388,2.79,2.79,0,0,1-.111.6l-.292-.081a11.577,11.577,0,0,1-3.212-.751c-1.654-.928-2.153-3.192-3.737-4.231a2.86,2.86,0,0,0-.424-.227,28.3,28.3,0,0,0-1.624-8.407,10.475,10.475,0,0,1-.963-3.984,9.794,9.794,0,0,1,1.215-3.606,91.656,91.656,0,0,0,4.539-12.421q1.256-3.969,2.521-7.943a12.521,12.521,0,0,0,2.214-2.108,11.241,11.241,0,0,0,2.567-5.512,7.806,7.806,0,0,0-1.417-5.83,3.369,3.369,0,0,0-2.37-1.452,3.082,3.082,0,0,0-2.214,1.009,9.843,9.843,0,0,0-1.9,3.258,14.542,14.542,0,0,0-1.583,6.1c.066,1.755.721,3.717-.3,5.144-3.354,4.675-5.885,10.051-8.543,15.164a27.126,27.126,0,0,0-1.725,3.8,21.18,21.18,0,0,0-.9,6.556,87.91,87.91,0,0,0,1.109,12.426,15.968,15.968,0,0,0,1.467,5.446,22.843,22.843,0,0,0-.9,6.132,3.5,3.5,0,0,0,.222,1.407,5.811,5.811,0,0,0,1.115,1.4,6.278,6.278,0,0,1,1.513,4.962,14.075,14.075,0,0,0,.449,4.972c1.009,4.478,2.017,8.951,2.824,13.465a8.614,8.614,0,0,1,.192,2.562c-.156,1.22-.832,2.38-.686,3.606a13.647,13.647,0,0,1,.323,1.725,4.26,4.26,0,0,1-.3,1.291c-1.15,3.343-4.241,11.009-4.206,14.549l.807-.192c-.812,4.594-2.713,8.987-3.712,13.566a45.389,45.389,0,0,0-.938,10.146,37.64,37.64,0,0,1-.081,4.589c-.156,1.357-.5,2.683-.7,4.034a36.55,36.55,0,0,0-.242,5.461,55.765,55.765,0,0,0,.5,8.573c.772,4.841-.58,9.652-.948,14.539a87.382,87.382,0,0,1-1.16,10.2c-.277,1.422-.625,2.834-.817,4.271-.565,4.266.257,8.664-.63,12.875-.419,1.972-1.165,4.186-.066,5.87.348.529.847.943,1.225,1.452a1.846,1.846,0,0,1,.353,1.78c-.217.464-.721.767-.847,1.261-.2.777.61,1.412,1.336,1.745l.207.081a1.871,1.871,0,0,0,.393,1.513,3.208,3.208,0,0,0,1.548.807l9.521,2.885c2.123.646,4.433,1.281,6.556.756a1.649,1.649,0,0,0,.378.817,3.207,3.207,0,0,0,1.548.807l9.45,2.864c2.431.736,5.1,1.462,7.433.464a4.221,4.221,0,0,0,1.7-1.286,4.5,4.5,0,0,0,.605-3.767,3.071,3.071,0,0,0-.918-1.684,4.034,4.034,0,0,0-2.2-.721,4.443,4.443,0,0,1-1.926-.5,1.386,1.386,0,0,1-.439-.459q.817-.807,1.583-1.674c-.414-.141-.56-.736-.6-1.17-.6-6.425,1.82-12.7,2.738-19.088a40.845,40.845,0,0,0,.242-9.672c-.111-1.215-.277-2.426-.328-3.646-.237-6.354,2.8-12.466,2.693-18.825-.05-2.975,1.513-5.91,2.274-8.79a31.819,31.819,0,0,0,.7-7.867l.121-20.807a26.034,26.034,0,0,0-.9-8.351,10.59,10.59,0,0,1-.363-4.569c2.567-1.135,5-2.814,7.741-2.521.731-1.942-.136-8.412-.822-10.373A44.61,44.61,0,0,1,467.138,461c.62-2.869-.232-5.92.459-8.78a5.31,5.31,0,0,1,.751-1.886,2.017,2.017,0,0,1,1.73-.913c0-1.75-.035-3.53-.151-5.305a12.608,12.608,0,0,0,2.809-3.233,49.843,49.843,0,0,0,3.419-8.1c1.851-4.841,4.377-9.385,6.5-14.12s2.33-9.914,4.034-14.816a11.135,11.135,0,0,1,5.421-6.243,8.648,8.648,0,0,0,2.814-1.694,4.539,4.539,0,0,0,.978-2.406,6.359,6.359,0,0,0-1.624-5.366Zm-59,208.339c.207-.227.408-.454.6-.7-.635-.1-1.412-.565-1.427-1.21a6.694,6.694,0,0,1,.414-1.891,7.564,7.564,0,0,0,.141-3.359c-.141-.782-.4-1.513-.565-2.31a21.574,21.574,0,0,1-.3-2.612,43.212,43.212,0,0,0-1.836-9.259c-.913-2.92.338-5.875.661-8.916a17.578,17.578,0,0,1,.59-4.287c.3-.807.787-1.513,1.084-2.33.691-1.871.282-3.954-.141-5.905,2.985-5.411,3.974-11.866,5.1-17.958q.948-5.129,1.9-10.252A9.987,9.987,0,0,1,443,521.152a53.164,53.164,0,0,1,1.15,13.787,20.47,20.47,0,0,0,.05,4.034c.232,1.468.842,2.854,1.2,4.3.787,3.182.328,6.526.5,9.8.066,1.321.237,2.642.293,3.964.247,5.845-1.71,11.528-3.641,17.05-1.185,3.384-1.447,7.232-2.017,10.777-.535,3.394-1.064,6.793-1.336,10.217-.081,1.044-.146,2.118-.272,3.177a8.312,8.312,0,0,0-.983-.156,4.441,4.441,0,0,1-1.926-.5,2.244,2.244,0,0,1-.741-1.125Z" transform="translate(-372.581 -315.479)"/>
    <path id="Path_339" data-name="Path 339" class="cls-2" d="M476.359,815.775a4.09,4.09,0,0,1,2.2.716,3.061,3.061,0,0,1,.918,1.674,4.458,4.458,0,0,1-.605,3.747,4.186,4.186,0,0,1-1.7,1.271c-2.335,1.009-5,.277-7.433-.454l-9.521-2.87a3.2,3.2,0,0,1-1.548-.8,2.1,2.1,0,0,1-.04-2.446A4.776,4.776,0,0,1,460.64,815a22.673,22.673,0,0,1,9.582-1.836c1.21-.025,2.4-.287,3.222.646.434.5.358,1.039,1.009,1.468A4.368,4.368,0,0,0,476.359,815.775Z" transform="translate(-394.266 -527.866)"/>
    <path id="Path_340" data-name="Path 340" class="cls-2" d="M440.689,805.391a4.034,4.034,0,0,1,2.2.711,3.112,3.112,0,0,1,.918,1.674,4.453,4.453,0,0,1-.605,3.747,4.2,4.2,0,0,1-1.7,1.276c-2.335,1.009-5,.272-7.433-.459l-9.521-2.869a3.157,3.157,0,0,1-1.548-.8,2.1,2.1,0,0,1-.04-2.446,4.746,4.746,0,0,1,2.017-1.609,22.617,22.617,0,0,1,9.556-1.836c1.205,0,2.4-.287,3.222.646.434.5.358,1.044,1.009,1.467a4.443,4.443,0,0,0,1.931.5Z" transform="translate(-370.097 -522.722)"/>
    <path id="Path_341" data-name="Path 341" class="cls-2" d="M446.176,601.345a117.243,117.243,0,0,0-16.884-.474,3.314,3.314,0,0,0-1.094.172c-1.241.5-1.432,2.128-1.553,3.459-.474,5.381-2.849,10.4-4.034,15.679a44.764,44.764,0,0,0-.938,10.086,37.067,37.067,0,0,1-.081,4.539c-.156,1.351-.5,2.668-.7,4.034a36.076,36.076,0,0,0-.242,5.426,55.052,55.052,0,0,0,.5,8.508c.772,4.811-.58,9.582-.948,14.443a86.4,86.4,0,0,1-1.16,10.131c-.277,1.412-.625,2.814-.817,4.241-.565,4.241.257,8.613-.63,12.794-.419,1.957-1.165,4.155-.066,5.83.348.53.847.938,1.225,1.442a1.831,1.831,0,0,1,.353,1.77c-.217.459-.721.761-.847,1.251-.2.772.61,1.407,1.336,1.735a13.932,13.932,0,0,0,16.218-4.009c-.635-.1-1.412-.56-1.427-1.2a6.621,6.621,0,0,1,.413-1.881,7.464,7.464,0,0,0,.141-3.338c-.141-.772-.4-1.513-.565-2.294a21.258,21.258,0,0,1-.3-2.592,42.673,42.673,0,0,0-1.836-9.2c-.913-2.9.338-5.835.661-8.861a17.367,17.367,0,0,1,.59-4.256c.3-.8.787-1.513,1.084-2.315.691-1.861.282-3.923-.141-5.865,2.985-5.381,3.974-11.79,5.1-17.842l1.9-10.187a9.841,9.841,0,0,1,1.513-4.3,52.493,52.493,0,0,1,1.15,13.7,20.171,20.171,0,0,0,.05,3.979c.232,1.457.842,2.834,1.2,4.271.787,3.157.328,6.48.5,9.733.066,1.311.237,2.622.292,3.939.247,5.8-1.71,11.453-3.641,16.934-1.185,3.364-1.447,7.186-2.017,10.706-.535,3.374-1.064,6.747-1.336,10.151-.247,3.127-.353,6.51-2.3,8.966a16.5,16.5,0,0,0,5.694,2.728,10.56,10.56,0,0,0,7.025-1.357,22.187,22.187,0,0,0,5.547-4.72c-.414-.141-.56-.736-.6-1.165-.6-6.379,1.82-12.607,2.738-18.961a40.345,40.345,0,0,0,.242-9.612c-.111-1.205-.277-2.405-.328-3.616-.237-6.314,2.8-12.391,2.693-18.7-.05-2.955,1.513-5.875,2.274-8.734a31.335,31.335,0,0,0,.7-7.812l.121-20.676a25.724,25.724,0,0,0-.9-8.3c-1.109-3.172.156-6.823.348-10.177A41.968,41.968,0,0,1,446.176,601.345Z" transform="translate(-368.655 -422.001)"/>
    <path id="Path_342" data-name="Path 342" class="cls-15" d="M510.212,438.948a65.927,65.927,0,0,1,7.721-12.194,19.882,19.882,0,0,0,1.715-2.34c1.084-1.876,1.407-4.09,2.093-6.147,1.916-5.769,6.7-10.4,7.862-16.369.424-2.163,1.805-4.034,2.748-6.052a7.632,7.632,0,0,1,2.632-3.53,4.486,4.486,0,0,1,5.3.807,6.284,6.284,0,0,1,1.619,5.32,4.443,4.443,0,0,1-.978,2.39,8.763,8.763,0,0,1-2.814,1.689,11.044,11.044,0,0,0-5.421,6.2c-1.684,4.871-1.9,10.025-4.034,14.72s-4.65,9.208-6.5,14.014a48.305,48.305,0,0,1-3.419,8.069c-1.533,2.521-3.944,4.634-6.838,5.013a17.177,17.177,0,0,0-.847-5.366C510.439,443.169,509.294,440.8,510.212,438.948Z" transform="translate(-430.809 -276.63)"/>
    <path id="Path_343" data-name="Path 343" class="cls-15" d="M438.31,440.632a27.963,27.963,0,0,0-1.634-10.479,10.376,10.376,0,0,1-.963-3.959,9.675,9.675,0,0,1,1.215-3.58,90.678,90.678,0,0,0,4.539-12.345l2.521-7.887a12.606,12.606,0,0,0,2.214-2.093,11.165,11.165,0,0,0,2.567-5.477,7.726,7.726,0,0,0-1.417-5.794,3.349,3.349,0,0,0-2.37-1.437,3.051,3.051,0,0,0-2.214,1.009,9.752,9.752,0,0,0-1.9,3.238,14.363,14.363,0,0,0-1.583,6.052c.066,1.745.721,3.691-.3,5.109-3.354,4.645-5.885,9.985-8.543,15.063a26.832,26.832,0,0,0-1.725,3.777,20.939,20.939,0,0,0-.9,6.526,86.793,86.793,0,0,0,1.109,12.345c.353,2.562.827,5.356,2.769,7.06A41.278,41.278,0,0,1,438.31,440.632Z" transform="translate(-373.609 -274.186)"/>
    <circle id="Ellipse_55" data-name="Ellipse 55" class="cls-15" cx="10.464" cy="10.464" r="10.464" transform="translate(62.449 144.103)"/>
    <path id="Path_344" data-name="Path 344" class="cls-15" d="M459.306,491.18a13.961,13.961,0,0,1-2.254,5.219c-.6,1.009-1.357,2.083-2.521,2.194a50.431,50.431,0,0,0,9.5,3.823,10.8,10.8,0,0,0,3.475.56,8.486,8.486,0,0,0,2.89-.741,14.347,14.347,0,0,0,8.139-9.582,18.885,18.885,0,0,1-3.883-.3,2.866,2.866,0,0,1-1.906-.933,3.071,3.071,0,0,1-.393-1.689q-.076-2.617,0-5.235a20.676,20.676,0,0,0-7.6.933c-1.009.328-2.017.726-3.051.983-.635.156-2.385,0-2.854.368C458.131,487.342,459.492,489.894,459.306,491.18Z" transform="translate(-392.035 -328.689)"/>
    <path id="Path_345" data-name="Path 345" class="cls-3" d="M452.326,495.672a6.581,6.581,0,0,0-5-5.84,11.571,11.571,0,0,1-3.212-.746c-1.654-.923-2.153-3.172-3.737-4.206s-3.843-.459-5.224.852a11.255,11.255,0,0,0-2.648,4.982,25.089,25.089,0,0,0-1.357,7.64,3.47,3.47,0,0,0,.222,1.4,5.886,5.886,0,0,0,1.115,1.4A6.193,6.193,0,0,1,434,506.075a13.937,13.937,0,0,0,.449,4.947c1.009,4.443,2.017,8.891,2.824,13.374a8.514,8.514,0,0,1,.192,2.521c-.156,1.21-.832,2.365-.686,3.576a13.561,13.561,0,0,1,.323,1.72,4.171,4.171,0,0,1-.3,1.276c-1.15,3.328-4.241,10.943-4.206,14.458,5.371-1.377,13.288-1.684,18.83-1.7a39.566,39.566,0,0,1,4.574.2c3.646.388,7.378,1.452,10.913.469,3.278-.913,6.188-3.53,9.582-3.2.731-1.931-.136-8.361-.822-10.308a44.045,44.045,0,0,1-1.513-23.868c.62-2.854-.232-5.88.459-8.719a5.224,5.224,0,0,1,.751-1.876,2.017,2.017,0,0,1,1.73-.908,64.246,64.246,0,0,0-1.261-13.581c-.338-1.589-1.039-3.464-2.637-3.737-1.442-.242-2.658.973-3.812,1.871a10.419,10.419,0,0,1-4.034,1.9,3.8,3.8,0,0,0-1.654.6c-.7.575-.792,1.614-1.357,2.315-1.009,1.256-3.263,1.145-3.979,2.592a9.076,9.076,0,0,0-.383,1.326,4.851,4.851,0,0,1-1.659,2.143A9.36,9.36,0,0,1,452.326,495.672Z" transform="translate(-378.471 -333.703)"/>
    <path id="Path_346" data-name="Path 346" class="cls-16" d="M470.6,447.937a1.914,1.914,0,0,0-.408-1.977c-.277-.217-.635-.3-.933-.5a4.035,4.035,0,0,1-1.009-1.276,5.477,5.477,0,0,0-6.863-1.73c-1.821.953-2.925,2.859-4.539,4.15-.827.666-1.78,1.16-2.607,1.82a10.762,10.762,0,0,0-3.374,5.456,31.053,31.053,0,0,0-.913,6.44,5.784,5.784,0,0,0,.076,1.957,5.139,5.139,0,0,0,.741,1.488,16.779,16.779,0,0,0,6.606,6.112,10.246,10.246,0,0,0,8.8.156,1.569,1.569,0,0,0,.676-.545,1.9,1.9,0,0,0,.1-1.165,7.993,7.993,0,0,1,.882-4.458c.5-1.009,1.256-1.876,1.664-2.925a10.388,10.388,0,0,0,.474-3.621C470.017,454.155,469.8,450.993,470.6,447.937Z" transform="translate(-388.544 -303.939)"/>
    <rect id="Rectangle_703" data-name="Rectangle 703" class="cls-3" width="25.764" height="25.764" transform="translate(77.02 93.713)"/>
    <path id="Path_347" data-name="Path 347" class="cls-15" d="M525.76,363.67a3.384,3.384,0,0,1-1.745,1.583,4.331,4.331,0,0,1-1.387.262,3.913,3.913,0,0,1-1.513-.187,3.474,3.474,0,0,1-1.6-1.276,8.069,8.069,0,0,1-.928-1.856,2.057,2.057,0,0,1-.187-1.049,1.513,1.513,0,0,0,1.009-.57,1.276,1.276,0,0,0,.025-1.009c-.03-.1-.06-.2-.1-.287-.076-.222-.338-.64-.156-.827s.605-.182.772-.257a7.279,7.279,0,0,1,1.568-.7,3.813,3.813,0,0,1,1.488.1.5.5,0,0,1,.187.071.433.433,0,0,1,.136.2c.141.343.222.721.333,1.074a2.214,2.214,0,0,0,.555.983,2.785,2.785,0,0,0,.772.464l.676.308a.963.963,0,0,1,.318.207.837.837,0,0,1,.151.414A3.868,3.868,0,0,1,525.76,363.67Z" transform="translate(-433.111 -250.091)"/>
    <path id="Path_348" data-name="Path 348" class="cls-4" d="M524.371,358.969a3.5,3.5,0,0,1-4.231.63c-.03-.1-.06-.2-.1-.287-.076-.222-.338-.64-.156-.827s.605-.182.772-.257a7.276,7.276,0,0,1,1.568-.7,3.812,3.812,0,0,1,1.488.1.5.5,0,0,1,.187.071.433.433,0,0,1,.136.2C524.18,358.253,524.26,358.616,524.371,358.969Z" transform="translate(-433.635 -249.639)"/>
    <circle id="Ellipse_56" data-name="Ellipse 56" class="cls-15" cx="3.5" cy="3.5" r="3.5" transform="translate(84.896 103.901)"/>
    <path id="Path_349" data-name="Path 349" class="cls-17" d="M527.258,370.363h-16.47c-.5-1.125-.958-2.254-1.468-3.379h0a2.345,2.345,0,0,1,.3-.756.822.822,0,0,1,.676-.378c.146,0,.313.055.419-.05s.071-.192.146-.262a.615.615,0,0,1,.4-.06.913.913,0,0,0,.777-.388,1.239,1.239,0,0,1,.2-.257,1.124,1.124,0,0,1,.424-.111c.409-.091.651-.5.958-.761a.575.575,0,0,1,.605-.166.374.374,0,0,1,.126.106,1.14,1.14,0,0,1,.166.419,3.742,3.742,0,0,0,1.316,2.123,2.985,2.985,0,0,0,4.508-1.125,5.871,5.871,0,0,0,.414-1.911v-.086a1.442,1.442,0,0,1,1.2.237,6.77,6.77,0,0,0,1.069.671c.449.176,1.009.176,1.316.5.131.131.222.313.388.393a1.16,1.16,0,0,0,.323.076,1.911,1.911,0,0,1,1.266,1.109,8.638,8.638,0,0,1,.706,2.552Z" transform="translate(-428.387 -253.541)"/>
    <path id="Path_350" data-name="Path 350" class="cls-2" d="M516.4,343.411a2.648,2.648,0,0,0-.61.706,3.474,3.474,0,0,1-1.22,1.2,1.513,1.513,0,0,0-.56.348.933.933,0,0,0-.146.393,7.38,7.38,0,0,0-.156,1.488,1.59,1.59,0,0,0,.121.736c.1.212.293.393.328.625a1.826,1.826,0,0,1-.061.545.474.474,0,0,0,.187.5,1.281,1.281,0,0,0,.282.066c.5.111.676.706.751,1.2.171,0,.247-.207.287-.368l.5-2.345c.06-.252.151-.55.408-.635a1.276,1.276,0,0,1,.535,0c.7.061,1.281-.479,1.962-.63a2.675,2.675,0,0,1,.666-.04c.535,0,1.16.247,1.276.746a.251.251,0,0,0,.106.222.424.424,0,0,0,.237,0c.338-.035.54.348.64.661l.353,1.145c.056.171.146.378.333.4a.353.353,0,0,0,.348-.308,1.4,1.4,0,0,0-.071-.5,5.458,5.458,0,0,1,.247-2.264,2.481,2.481,0,0,0-.343-2.194c-.192-.207-.444-.363-.62-.585s-.257-.459-.429-.666a4.4,4.4,0,0,0-2.446-1.069A5.013,5.013,0,0,0,516.4,343.411Z" transform="translate(-430.198 -241.179)"/>
    <g id="Group_453" data-name="Group 453" class="cls-18" transform="translate(83.505 104.513)">
      <path id="Path_351" data-name="Path 351" d="M523.033,353.641c-.187,0-.277-.227-.333-.4l-.353-1.145c-.1-.313-.3-.7-.641-.666a.424.424,0,0,1-.237,0c-.076-.04-.086-.136-.106-.222-.116-.5-.741-.721-1.276-.746a2.456,2.456,0,0,0-.666.045c-.681.146-1.266.686-1.962.625a1.473,1.473,0,0,0-.534,0c-.257.091-.348.383-.409.64-.177.782-.348,1.563-.5,2.34-.04.161-.116.358-.287.368-.076-.5-.247-1.084-.751-1.2a1.049,1.049,0,0,1-.282-.066.318.318,0,0,1-.146-.166,1.66,1.66,0,0,1-.04.217.474.474,0,0,0,.187.5,1.284,1.284,0,0,0,.282.066c.5.111.676.706.751,1.2.172,0,.247-.207.287-.368.177-.782.348-1.563.5-2.345.061-.252.151-.55.408-.635a1.275,1.275,0,0,1,.535,0c.7.061,1.281-.479,1.962-.63a2.671,2.671,0,0,1,.666-.04c.535,0,1.16.247,1.276.746a.251.251,0,0,0,.106.222.424.424,0,0,0,.237,0c.338-.035.54.348.641.661l.353,1.145c.055.171.146.378.333.4a.353.353,0,0,0,.348-.308,1.009,1.009,0,0,0-.05-.4A.313.313,0,0,1,523.033,353.641Z" transform="translate(-514.098 -349.985)"/>
      <path id="Path_352" data-name="Path 352" d="M514.159,352.829c-.035-.232-.227-.414-.328-.625a1.279,1.279,0,0,1-.116-.454V352a1.587,1.587,0,0,0,.121.736c.081.171.222.323.292.5A1.124,1.124,0,0,0,514.159,352.829Z" transform="translate(-513.711 -350.625)"/>
      <path id="Path_353" data-name="Path 353" d="M532.187,350.1a6.556,6.556,0,0,0-.287,2.017,12.247,12.247,0,0,1,.288-1.473,3.865,3.865,0,0,0,.086-1.13A4.567,4.567,0,0,1,532.187,350.1Z" transform="translate(-522.727 -349.52)"/>
    </g>
    <path id="Path_354" data-name="Path 354" class="cls-17" d="M510.978,373.591H507.05a12.355,12.355,0,0,1,.923-3.066.7.7,0,0,1,.166-.267.241.241,0,0,1,.055-.045c.116-.091.277-.126.4-.212s.141-.176.257-.212a3.485,3.485,0,0,1,1.281.212,1.282,1.282,0,0,1,.338.086,1.14,1.14,0,0,1,.535.656A6.189,6.189,0,0,1,510.978,373.591Z" transform="translate(-425.042 -257.209)"/>
  </g>
</svg>
