<svg xmlns="http://www.w3.org/2000/svg" width="389.503" height="319.883" viewBox="0 0 389.503 319.883"><defs><style>.a{fill:#d0cde1;}.b{fill:#3f3d56;}.c{fill:#536dfe;}.d{fill:#fff;}</style></defs><g transform="translate(-3754.695 -4310.43)"><path class="a" d="M109.684,566.416l40.37-58.136-40.391,64.46-.024,6.614q-4.318-.036-8.549-.282c-.013-1.5,3.418-84.137,3.273-85.632.2-.057.311-7.815.39-8.155l-42.175-63.53L104.8,479.272l.126,1.7,2.5-64.2L71.175,351.024l36.541,54.465c.014-.874,1.73-132.7,1.746-133.509.01.432.8,104.9.8,105.345l34.673-42.052-34.706,51.088-.177,57.461,32.176-55.565c-40.155,81.033-31.269,52.677-32.294,95.964l46.738-77.371L109.9,495.367Z" transform="translate(3730.711 4038.449)"/><path class="a" d="M1095.776,676.278l16.823-24.227-16.832,26.862-.01,2.756q-1.8-.015-3.563-.117c-.005-.626,1.424-35.062,1.364-35.685.083-.024.129-3.257.162-3.4l-17.575-26.474,17.594,23.969.052.709,1.044-26.755-15.108-27.4,15.228,22.7c.006-.364.721-55.3.728-55.637,0,.18.333,43.716.335,43.9l14.449-17.524L1096,601.245l-.074,23.945,13.409-23.155c-16.734,33.768-13.031,21.952-13.458,39.991l19.477-32.242-19.493,36.887Z" transform="translate(2990.459 3936.48)"/><ellipse class="a" cx="155.252" cy="13.396" rx="155.252" ry="13.396" transform="translate(3793.076 4603.521)"/><rect class="b" width="389.503" height="232.747" transform="translate(3754.695 4375.878)"/><path class="c" d="M342.638,374.581a93.248,93.248,0,0,1-93.124,91.837c-1.095,0-2.183-.019-3.271-.057v-91.78Z" transform="translate(3589.913 4001.297)"/><path class="c" d="M561.018,732.1H523.972a19.72,19.72,0,0,1,37.045,0Z" transform="translate(3394.235 3876.528)"/><path class="c" d="M836.967,550.721v78.4a39.25,39.25,0,0,1,0-78.4Z" transform="translate(3193.132 3937.515)"/><rect class="d" width="268.669" height="23.004" rx="11.502" transform="translate(3811.926 4460.452)"/><rect class="d" width="268.669" height="23.004" rx="11.502" transform="translate(3811.926 4505.784)"/><rect class="d" width="94.196" height="23.004" rx="11.502" transform="translate(3923.517 4551.115)"/></g></svg>